<!--
SPDX-License-Identifier: Apache-2.0
Copyright (c) 2026 Keith Jasper
Contact: https://github.com/keithjasper83/ESPRelays/issues
-->

<svg xmlns="http://www.w3.org/2000/svg" viewBox="0 0 1200 700" role="img" aria-label="Web panel preview">
  <rect width="1200" height="700" fill="#0B1020" rx="22"/>
  <rect x="36" y="26" width="1128" height="648" rx="18" fill="#111A31" stroke="#2B3A62"/>
  <rect x="36" y="26" width="1128" height="56" rx="18" fill="#18264B"/>
  <circle cx="70" cy="54" r="8" fill="#F87171"/>
  <circle cx="94" cy="54" r="8" fill="#FBBF24"/>
  <circle cx="118" cy="54" r="8" fill="#34D399"/>

  <rect x="74" y="116" width="480" height="220" rx="14" fill="#1D4ED8"/>
  <text x="102" y="160" font-family="Segoe UI, Arial, sans-serif" font-size="28" fill="#E0E7FF" font-weight="700">Relay Control</text>
  <rect x="102" y="190" width="140" height="44" rx="10" fill="#22C55E"/>
  <text x="150" y="219" text-anchor="middle" font-family="Segoe UI, Arial, sans-serif" font-size="17" fill="#05210F" font-weight="700">ON</text>
  <rect x="258" y="190" width="140" height="44" rx="10" fill="#EF4444"/>
  <text x="328" y="219" text-anchor="middle" font-family="Segoe UI, Arial, sans-serif" font-size="17" fill="#3B0A0A" font-weight="700">OFF</text>
  <rect x="414" y="190" width="110" height="44" rx="10" fill="#F59E0B"/>
  <text x="469" y="219" text-anchor="middle" font-family="Segoe UI, Arial, sans-serif" font-size="17" fill="#3A2202" font-weight="700">TOGGLE</text>

  <rect x="590" y="116" width="536" height="220" rx="14" fill="#0EA5A5"/>
  <text x="620" y="160" font-family="Segoe UI, Arial, sans-serif" font-size="28" fill="#042A2A" font-weight="700">Network Health</text>
  <rect x="620" y="190" width="476" height="26" rx="8" fill="#E6FFFA" opacity="0.85"/>
  <rect x="620" y="230" width="430" height="26" rx="8" fill="#E6FFFA" opacity="0.7"/>
  <rect x="620" y="270" width="390" height="26" rx="8" fill="#E6FFFA" opacity="0.55"/>

  <rect x="74" y="370" width="1052" height="258" rx="14" fill="#1F2937"/>
  <text x="102" y="414" font-family="Segoe UI, Arial, sans-serif" font-size="26" fill="#E5E7EB" font-weight="700">Schedules</text>
  <rect x="102" y="440" width="998" height="42" rx="10" fill="#374151"/>
  <rect x="102" y="494" width="998" height="42" rx="10" fill="#334155"/>
  <rect x="102" y="548" width="998" height="42" rx="10" fill="#2F3D52"/>
</svg>
